# xmcd CD database file
#
# Track frame offsets:
#	187
#	15215
#	20290
#	36762
#	48350
#	61315
#	73105
#	80017
#	95407
#	107625
#	118600
#	128875
#	142435
#	152202
#	166140
#	179077
#	189417
#	199225
#	210192
#	221597
#
# Disc length: 3086 seconds
#
# Revision: 2
# Processed by: cddbd v1.5.2PL0 Copyright (c) Steve Scherf et al.
# Submitted via: CDex 1.51
#
DISCID=1c0c0c14
DTITLE=Sons Of The Pioneers - Sunset On The Range
DYEAR=1995
DGENRE=Country
TTITLE0=Riders In The Sky
TTITLE1=Yellow Rose Of Texas
TTITLE2=High Noon
TTITLE3=Kaw-Liga
TTITLE4=O Bury Me Not On The Lone Prairie
TTITLE5=Blue Eyes Crying In The Rain
TTITLE6=Along The Santa Fe Trail
TTITLE7=Home On The Range
TTITLE8=Tumbling Tumbleweeds
TTITLE9=Cheyenne
TTITLE10=Jesse James
TTITLE11=Billy The Kid
TTITLE12=Cool Water
TTITLE13=Room Full Of Roses
TTITLE14=Have I Told You Lately That I Love You
TTITLE15=Red River Valley
TTITLE16=Chant Of The Wanderer
TTITLE17=The Oregon Trail
TTITLE18=Ramona
TTITLE19=Trail Dreamin'
EXTD=YEAR: 1995
EXTT0=
EXTT1=
EXTT2=
EXTT3=
EXTT4=
EXTT5=
EXTT6=
EXTT7=
EXTT8=
EXTT9=
EXTT10=
EXTT11=
EXTT12=
EXTT13=
EXTT14=
EXTT15=
EXTT16=
EXTT17=
EXTT18=
EXTT19=
PLAYORDER=
